<svg xmlns="http://www.w3.org/2000/svg" width="1024" height="1024" viewBox="0 0 1024 1024" version="1.1"><path d="M 468.773 141.080 C 462.961 142.451, 452.690 147.415, 444.752 152.689 L 437.510 157.500 428.155 167 L 418.800 176.500 411.454 187.501 L 404.109 198.502 399.536 208.157 C 389.092 230.203, 380.097 266.888, 380.020 287.750 C 380.009 290.637, 379.809 293, 379.576 293 C 379.342 293, 375.789 291.654, 371.679 290.008 C 367.569 288.362, 360.981 286.337, 357.038 285.508 L 349.869 284 339.595 284 L 329.320 284 321.532 285.992 L 313.744 287.984 306.622 291.438 L 299.500 294.892 294.559 299.013 L 289.619 303.135 284.559 302.318 C 281.777 301.868, 275.450 301.526, 270.500 301.558 L 261.500 301.615 256 303.447 C 252.975 304.454, 247.978 306.539, 244.895 308.080 L 239.290 310.883 233.588 316.093 C 226.382 322.679, 222.371 328.506, 218.898 337.432 L 216.155 344.482 212.740 345.192 C 202.497 347.320, 191.343 353.740, 183 362.311 L 177.500 367.961 173.797 374.084 L 170.094 380.207 168.064 386.353 C 166.948 389.734, 165.589 395.650, 165.045 399.500 L 164.056 406.500 164.594 413 L 165.132 419.500 158.924 423 L 152.717 426.500 147.799 432 L 142.882 437.500 139.456 444.500 C 137.572 448.350, 135.348 454.182, 134.515 457.460 L 133 463.420 133 472.500 L 133 481.580 134.525 487.433 C 135.363 490.652, 136.848 495.117, 137.824 497.356 L 139.598 501.425 135.029 507.462 C 129.980 514.135, 126.799 520.836, 124.510 529.621 L 123 535.420 123 544.074 C 123 561.999, 127.781 574.709, 139.899 589 L 142.867 592.500 140.309 600 L 137.751 607.500 137.249 616.036 L 136.747 624.571 137.984 631.905 L 139.221 639.238 143.557 647.869 L 147.894 656.500 153.697 662.426 C 156.889 665.685, 161.520 669.635, 163.989 671.203 L 168.477 674.054 168.605 682.777 L 168.733 691.500 170.378 697.876 L 172.023 704.251 175.722 711.290 L 179.420 718.328 185.994 724.994 L 192.568 731.659 200.848 735.804 L 209.128 739.948 213.982 740.592 L 218.836 741.236 220.411 748.207 L 221.985 755.179 225.616 762.089 L 229.248 769 233.287 773.589 C 238.353 779.344, 246.566 785.454, 253.506 788.632 L 258.844 791.075 266.172 792.621 L 273.500 794.166 282.500 793.553 L 291.500 792.939 294.836 797.914 L 298.172 802.890 303.336 806.871 C 306.176 809.061, 311.335 812.192, 314.800 813.830 L 321.101 816.808 329.300 817.917 L 337.500 819.026 343.990 817.633 L 350.480 816.240 351.954 818.370 C 354.345 821.826, 359.651 826.239, 366.289 830.295 L 372.500 834.089 379.500 836.295 L 386.500 838.500 399 838.449 L 411.500 838.399 419.110 835.753 L 426.721 833.108 432.610 829.557 L 438.500 826.005 446.389 826.003 L 454.278 826 461.898 833.250 L 469.519 840.500 478.144 846.265 L 486.769 852.030 497.424 857.056 C 517.931 866.729, 540.231 872.737, 564.337 875.084 L 576.500 876.268 592 875.661 L 607.500 875.053 618 873.480 C 681.109 864.026, 735.938 824.813, 763.951 769.098 C 768.303 760.442, 775.006 741.817, 777.033 732.750 L 778.318 727 784.409 726.967 C 787.759 726.949, 793.534 726.543, 797.242 726.065 L 803.984 725.196 810.242 722.213 L 816.500 719.230 820.389 715.366 C 826.848 708.948, 828.844 705.748, 834.427 692.856 C 837.369 686.060, 847.742 662.950, 857.476 641.500 C 880.841 590.016, 883.286 583.864, 887.687 565.500 L 889.365 558.500 889.734 500.299 L 890.104 442.098 888.951 437.816 L 887.798 433.534 883.573 429.310 L 879.349 425.086 874.674 423.835 L 870 422.585 870 347.659 L 870 272.732 868.789 268.616 L 867.578 264.500 861.965 258.845 L 856.351 253.191 852.425 252.101 L 848.500 251.011 738.500 251.028 L 628.500 251.044 624.435 252.890 C 622.199 253.906, 618.758 256.151, 616.789 257.880 L 613.209 261.023 610.855 265.762 L 608.500 270.500 608 331.239 L 607.500 391.978 604.507 386.239 L 601.514 380.500 594.507 373.425 L 587.500 366.350 582 363.254 C 578.975 361.551, 573.718 359.341, 570.317 358.343 L 564.134 356.528 563.561 353.473 C 563.246 351.793, 561.442 347.192, 559.552 343.249 L 556.116 336.079 549.808 329.789 L 543.500 323.500 537.418 320.281 L 531.337 317.062 525.458 315.531 L 519.580 314 512.937 314 L 506.294 314 499.330 307.250 L 492.365 300.500 486.493 297.013 C 483.263 295.095, 477.443 292.451, 473.560 291.137 L 466.500 288.749 454.887 288.256 L 443.274 287.763 434.887 289.455 C 430.274 290.385, 424.518 292.019, 422.095 293.085 C 419.673 294.152, 417.529 294.862, 417.331 294.664 C 416.547 293.880, 420.023 271.607, 422.393 262.233 C 428.318 238.795, 439.829 217.154, 454.340 202.173 L 459.500 196.846 466.862 191.983 C 470.911 189.309, 476.419 186.331, 479.101 185.367 L 483.978 183.613 488.666 180.056 L 493.355 176.500 495.677 172.093 L 498 167.685 498 162.158 L 498 156.631 495.910 152.315 L 493.820 147.998 490.354 145.140 L 486.887 142.283 483.078 141.141 C 478.718 139.835, 474.134 139.816, 468.773 141.080 M 640 351.495 L 640 421 739.250 421 L 838.500 421 838.258 351.750 L 838.015 282.500 739.008 282.245 L 640 281.990 640 351.495 M 699.419 298.917 C 699.189 299.146, 699 312.533, 699 328.667 L 699 358 691 358 L 683 358 683 328.500 L 683 299 673.500 299 L 664 299 664 339.050 L 664 379.099 665.425 381.855 L 666.850 384.611 669.472 385.805 L 672.094 387 740.124 387 L 808.154 387 811.077 384.077 L 814 381.154 814 340.077 L 814 299 805 299 L 796 299 796 328.500 L 796 358 788.250 357.998 L 780.500 357.997 780.570 328.498 L 780.641 299 771.820 299 L 763 299 763 328.500 L 763 358 756.015 358 L 749.030 358 748.765 328.250 L 748.500 298.500 740 298.500 L 731.500 298.500 731.235 328.250 L 730.970 358 723.985 358 L 717 358 717 328.250 L 717.001 298.500 708.420 298.500 C 703.700 298.500, 699.650 298.688, 699.419 298.917 M 329.105 312.518 C 326.137 313.352, 321.525 315.222, 318.856 316.675 L 314.004 319.316 306.979 326.658 L 299.955 334 298.228 334.111 C 294.105 334.375, 291.316 333.636, 286.565 331.019 L 281.500 328.229 277.310 327.612 L 273.120 326.995 267.810 328.121 C 257.942 330.213, 250.037 335.669, 245.393 343.592 L 242.863 347.910 241.462 356.566 L 240.060 365.222 238.780 366.766 C 238.076 367.615, 236.052 368.915, 234.282 369.655 L 231.064 371 224.282 371.010 L 217.500 371.020 212.187 373.493 L 206.873 375.967 201.099 381.741 L 195.325 387.515 193.037 393.507 L 190.748 399.500 190.743 406.500 L 190.737 413.500 192.868 419 L 194.999 424.500 194.999 428.115 L 195 431.730 192.934 434.356 L 190.869 436.982 185.184 438.617 C 177.703 440.769, 171.966 444.188, 167.450 449.187 L 163.770 453.260 161.191 458.880 L 158.611 464.500 158.625 472.500 L 158.639 480.500 160.700 485.108 L 162.762 489.716 167.881 495.369 L 173 501.021 173 504.111 L 173 507.200 169.688 510.350 C 167.867 512.082, 164.133 515.359, 161.391 517.631 L 156.406 521.761 153.004 528.131 L 149.603 534.500 149.205 543 L 148.808 551.500 150.937 557.145 C 152.107 560.249, 154.420 564.660, 156.076 566.946 L 159.087 571.102 163.772 574.301 C 166.349 576.061, 169.705 578.703, 171.229 580.173 L 174 582.846 174 586.615 L 174 590.384 170.011 597.099 C 165.318 604.998, 164.184 607.775, 162.908 614.494 L 161.959 619.487 163.081 624.994 L 164.202 630.500 167.182 636.140 C 171.074 643.507, 173.929 646.106, 183 650.541 C 187.125 652.558, 191.732 655.365, 193.238 656.779 L 195.975 659.350 196.583 662.591 L 197.191 665.831 195.595 671.320 L 194 676.808 194 681.722 L 194 686.637 195.584 691.972 C 198.503 701.801, 204.970 709.330, 213.879 713.271 L 218.360 715.253 227.095 715.456 L 235.830 715.659 238.401 717.343 C 239.815 718.270, 241.704 720.144, 242.598 721.509 L 244.224 723.991 244.457 732.960 L 244.690 741.928 247.895 748.438 L 251.100 754.948 255.379 758.455 C 257.733 760.384, 261.873 762.974, 264.580 764.211 L 269.500 766.461 278 766.481 L 286.500 766.500 291.685 764.250 L 296.871 762 300.359 762 L 303.847 762 306.844 764.523 L 309.842 767.045 312.552 774.137 L 315.262 781.229 318.287 784.674 L 321.311 788.118 325.115 790.059 L 328.920 792 334.026 792 L 339.131 792 341.316 790.837 C 344.618 789.078, 345.796 786.989, 346.553 781.552 L 347.242 776.604 350.044 773.802 L 352.846 771 355.701 771 L 358.555 771 360.886 772.633 L 363.216 774.265 365.086 778.383 C 366.115 780.647, 366.966 783.715, 366.978 785.201 C 366.990 786.686, 367.481 790.146, 368.070 792.889 L 369.139 797.877 373.105 802.382 L 377.071 806.888 382.390 809.490 L 387.708 812.092 394.731 812.681 L 401.754 813.269 408.634 811.180 L 415.514 809.090 423.507 803.461 L 431.500 797.831 439.500 798.605 C 443.900 799.031, 450.274 799.302, 453.664 799.208 L 459.828 799.036 465.269 797 C 468.262 795.881, 472.849 793.548, 475.463 791.817 L 480.215 788.669 484.014 783.863 L 487.813 779.057 489.406 774.529 C 490.283 772.038, 491.697 768.016, 492.548 765.591 L 494.096 761.182 497.449 759.591 L 500.802 758 509.151 757.990 L 517.500 757.980 522.695 755.562 L 527.889 753.143 532.331 749.049 L 536.773 744.954 538.984 739.815 L 541.195 734.677 541.135 727.088 L 541.076 719.500 542.105 716.283 L 543.134 713.065 546.090 710.578 L 549.046 708.091 555.109 706.389 L 561.173 704.688 566.891 700.992 L 572.609 697.297 576.165 691.898 C 578.121 688.929, 580.317 684.700, 581.045 682.500 L 582.368 678.500 582.370 672 L 582.373 665.500 580.186 659.246 C 577.616 651.893, 577.543 650.780, 579.402 647.200 L 580.805 644.500 587.447 639.500 L 594.090 634.500 597.599 629.413 L 601.109 624.325 603.054 618.073 L 605 611.822 605 605.225 L 605 598.628 603.357 592.064 C 602.454 588.454, 600.175 582.125, 598.293 578 C 596.412 573.875, 594.233 567.800, 593.451 564.500 L 592.030 558.500 591.993 513.500 L 591.956 468.500 589.940 464.057 L 587.925 459.614 582.962 454.367 L 578 449.120 578 445.154 L 578 441.189 581.481 437.023 L 584.961 432.857 586.089 428.678 L 587.216 424.500 586.811 415.986 L 586.407 407.471 584.123 402.755 L 581.840 398.039 577.379 393.077 L 572.918 388.115 566.799 385.058 L 560.681 382 554.808 382 L 548.936 382 545.548 380.585 L 542.161 379.169 541.080 377.150 L 540 375.131 540 370.247 L 540 365.363 538.533 360.424 L 537.066 355.484 534.084 351.429 L 531.101 347.373 526.301 344.803 L 521.500 342.234 516.958 341.587 L 512.416 340.940 505.165 342.465 L 497.913 343.991 494.516 342.571 L 491.118 341.151 489.106 337.208 C 487.999 335.039, 484.780 330.732, 481.952 327.638 L 476.810 322.011 470.155 318.805 L 463.500 315.599 453.805 315.186 L 444.110 314.772 436.859 316.974 C 432.872 318.185, 425.627 321.176, 420.761 323.620 L 411.913 328.064 405.708 329.653 L 399.503 331.243 393.154 330.650 L 386.804 330.057 381.152 327.476 C 378.043 326.056, 372.713 323.082, 369.307 320.867 L 363.114 316.839 355.900 314.331 L 348.687 311.822 341.594 311.413 L 334.500 311.003 329.105 312.518 M 354.047 343.245 L 350.594 344.406 346.797 348.203 L 343 352 343 355.911 L 343 359.822 346.077 362.411 L 349.153 365 351.500 365 C 352.791 365, 356.116 364.476, 358.889 363.836 L 363.930 362.673 369.866 366.336 L 375.801 370 378.478 370 L 381.154 370 384.077 367.077 L 387 364.154 387 360.527 L 387 356.901 385.589 354.200 C 383.759 350.697, 379.401 346.685, 375 344.453 L 371.500 342.678 364.500 342.381 L 357.500 342.085 354.047 343.245 M 438.388 342.980 C 437.227 343.449, 435.314 345.057, 434.138 346.552 L 432 349.270 432 352.180 L 432 355.091 434.432 357.523 L 436.864 359.955 440.987 360.614 L 445.110 361.273 448.305 363.388 L 451.500 365.502 454.257 371.001 C 455.773 374.025, 457.960 377.288, 459.118 378.250 L 461.222 380 465.055 380 L 468.888 380 471.543 377.717 L 474.197 375.434 474.717 370.816 L 475.238 366.199 472.567 360.349 L 469.895 354.500 466.198 350.630 L 462.500 346.761 457.500 344.390 L 452.500 342.020 446.500 342.073 C 443.200 342.103, 439.550 342.511, 438.388 342.980 M 269.310 369.946 L 265.119 371.849 260.742 375.884 L 256.364 379.919 253.573 385.620 L 250.781 391.321 250.265 397.015 L 249.749 402.708 250.941 406.321 L 252.134 409.935 255.143 412.467 L 258.153 415 261.622 415 L 265.091 415 267.428 412.663 L 269.766 410.325 270.485 403.913 L 271.204 397.500 272.601 394.500 L 273.997 391.500 278.749 388.581 C 281.362 386.975, 284.512 384.759, 285.750 383.657 L 288 381.651 288 377.749 L 288 373.846 285.077 370.923 L 282.154 368 277.827 368.022 L 273.500 368.044 269.310 369.946 M 505.923 387.923 L 503 390.846 503 394.201 L 503 397.555 504.566 399.791 L 506.132 402.027 510.316 404.126 C 518.643 408.305, 521.343 412.155, 522.931 422.117 L 523.949 428.500 526.101 430.263 C 527.285 431.232, 529.384 432.309, 530.767 432.656 L 533.281 433.287 535.788 432.394 L 538.296 431.500 540.398 428.677 L 542.500 425.853 542.500 417.677 L 542.500 409.500 539.852 403.852 L 537.204 398.204 533.016 394.016 L 528.829 389.829 523.664 387.424 L 518.500 385.020 513.673 385.010 L 508.846 385 505.923 387.923 M 313.433 423.925 L 308.366 426.831 305.827 430.166 C 304.431 432, 302.240 435.525, 300.959 438 L 298.630 442.500 298.256 451.500 L 297.882 460.500 299.963 463.810 L 302.044 467.120 305.530 468.577 L 309.017 470.034 311.524 469.405 L 314.032 468.775 316.016 466.253 L 318 463.730 318 457.514 L 318 451.298 319.079 448.203 L 320.158 445.108 325.457 440.581 L 330.757 436.053 331.263 433.402 L 331.770 430.751 330.839 427.377 L 329.907 424.003 327.003 422.502 L 324.099 421 321.300 421.009 L 318.500 421.019 313.433 423.925 M 408.277 424.973 L 405.054 426.938 404.344 429.719 C 402.738 436.011, 404.649 439.012, 412.500 442.528 C 415.250 443.759, 418.270 445.623, 419.212 446.670 C 421.499 449.213, 424 455.346, 424 458.412 L 424 460.888 426.413 463.694 L 428.827 466.500 433.391 466.500 L 437.955 466.500 440.727 463.725 L 443.500 460.949 443.453 453.725 L 443.407 446.500 441.072 441.230 L 438.736 435.960 433.404 431.086 L 428.071 426.212 423.357 424.606 L 418.644 423 415.072 423.004 L 411.500 423.007 408.277 424.973 M 227.852 438.391 C 221.189 440.771, 215.487 446.528, 211.730 454.668 L 209.500 459.500 209.500 470 L 209.500 480.500 211.763 484.735 L 214.026 488.971 216.684 490.713 L 219.343 492.455 223.277 492.455 L 227.212 492.455 229.696 489.567 L 232.180 486.680 231.580 482.590 C 231.250 480.340, 230.712 475.758, 230.384 472.406 L 229.787 466.313 231.527 462.906 C 232.485 461.033, 235.007 457.598, 237.134 455.272 L 241 451.045 240.978 447.272 L 240.956 443.500 239.228 441.367 C 237.504 439.239, 233.861 436.961, 232.316 437.044 C 231.867 437.068, 229.858 437.674, 227.852 438.391 M 481.923 442.923 L 479 445.846 479 449.040 L 479 452.233 484.873 458.034 L 490.746 463.834 491.406 467.349 L 492.065 470.864 490.033 476.648 C 488.915 479.828, 488 483.493, 488 484.792 L 488 487.154 490.923 490.077 L 493.846 493 497.473 493 L 501.099 493 504.138 491.429 L 507.176 489.858 509.838 484.179 L 512.500 478.500 512.490 470 L 512.480 461.500 510.353 456.878 L 508.225 452.255 504.431 448.055 L 500.636 443.855 496.858 441.928 L 493.080 440 488.963 440 L 484.846 440 481.923 442.923 M 622.971 453.029 L 620.942 455.058 621.221 501.118 L 621.500 547.178 623.861 549.089 L 626.222 551 739.156 551 L 852.091 551 854.545 548.545 L 857 546.091 857 500.545 L 857 455 855 453 L 853 451 739 451 L 625 451 622.971 453.029 M 544.681 479.967 L 542 483.153 542 486.380 L 542 489.606 545.178 493.927 L 548.356 498.249 548.775 503.374 L 549.195 508.500 547.098 514 C 545.945 517.025, 545.001 520.478, 545.001 521.673 L 545 523.847 547.560 526.889 L 550.121 529.932 553.439 530.554 L 556.757 531.177 559.782 529.613 L 562.807 528.048 564.815 524.774 C 565.919 522.973, 567.592 518.836, 568.532 515.579 L 570.241 509.659 569.773 502.579 L 569.304 495.500 567.090 490.393 L 564.876 485.285 561.002 481.502 L 557.128 477.719 552.245 477.250 L 547.363 476.780 544.681 479.967 M 347.500 506.837 L 344.499 508.667 341.500 514.084 L 338.500 519.500 338.500 528 L 338.500 536.500 341.101 542.046 C 342.532 545.096, 345.139 549.228, 346.896 551.228 L 350.089 554.866 355.241 557.433 L 360.393 560 363.246 560 L 366.099 560 368.909 558.547 L 371.718 557.094 372.980 554.047 L 374.243 551 373.006 548.015 L 371.770 545.030 366.870 542.015 L 361.971 539.001 359.989 535.750 L 358.007 532.500 358.004 529.710 L 358 526.920 360 523 L 362 519.080 362 514.676 L 362 510.273 359.364 507.636 L 356.727 505 353.614 505.004 L 350.500 505.007 347.500 506.837 M 264.929 509.478 L 262.358 510.877 259.753 514.688 L 257.148 518.500 255.451 524.428 L 253.755 530.356 254.250 536.530 L 254.746 542.704 257.442 548.102 C 258.925 551.071, 261.538 554.954, 263.247 556.731 L 266.356 559.962 269.806 561.101 L 273.256 562.240 277.018 561.113 L 280.779 559.986 282.477 556.408 L 284.174 552.830 283.573 550.434 C 283.242 549.115, 281.694 546.566, 280.132 544.768 C 278.571 542.971, 276.777 540.517, 276.147 539.316 L 275 537.131 275 533.536 L 275 529.940 277.487 524.031 L 279.974 518.121 279.356 515.030 L 278.738 511.939 276.234 509.969 L 273.730 508 270.615 508.040 L 267.500 508.080 264.929 509.478 M 443.020 520.284 L 440.539 521.539 439.284 524.020 C 438.594 525.384, 438.023 527.584, 438.015 528.909 L 438 531.318 444.417 537.457 L 450.833 543.595 451.531 547.315 L 452.229 551.034 451.114 555.460 C 450.502 557.894, 450 560.976, 450 562.308 L 450 564.730 452.054 567.341 L 454.107 569.952 457.891 571.086 L 461.675 572.219 464.734 570.637 L 467.793 569.055 470.397 563.831 L 473 558.607 473 551.341 L 473 544.075 470.876 538.288 L 468.751 532.500 463.126 526.974 L 457.500 521.448 453.384 520.224 C 448.224 518.690, 446.148 518.702, 443.020 520.284 M 195.607 522.095 C 192.137 524.824, 189.524 530.083, 188.023 537.357 L 186.814 543.214 188.016 549.583 L 189.217 555.952 192.359 561.185 L 195.500 566.418 199.828 569.709 L 204.155 573 208.655 573 L 213.154 573 216.077 570.077 L 219 567.154 219 564.055 L 219 560.955 215.012 556.629 L 211.025 552.303 209.512 548.684 C 207.515 543.903, 207.603 541.468, 210.026 534.426 L 212.051 528.538 210.885 525.722 L 209.718 522.906 206.909 521.453 L 204.099 520 201.185 520 L 198.270 520 195.607 522.095 M 511.672 557.043 L 509.074 559.087 508.449 562.419 L 507.824 565.752 510.412 571.222 L 513 576.693 513 579.379 C 513 580.856, 512.313 583.737, 511.474 585.782 L 509.947 589.500 505.432 593.500 L 500.918 597.500 500.336 601.204 L 499.753 604.907 502.800 607.954 L 505.846 611 510.273 611 L 514.699 611 519.018 608.100 L 523.336 605.199 527.149 599.527 L 530.962 593.855 532.077 589.713 L 533.192 585.572 532.844 578.036 L 532.495 570.500 529.699 564.802 L 526.904 559.104 523.584 557.052 L 520.264 555 517.267 555 L 514.270 555 511.672 557.043 M 630.529 582.250 C 630.908 584.038, 632.132 587.657, 633.250 590.292 L 635.283 595.085 637.364 596.542 L 639.445 598 739.588 598 L 839.730 598 842.226 596.037 L 844.722 594.073 846.733 589.287 C 847.839 586.654, 849.035 583.263, 849.391 581.750 L 850.038 579 739.940 579 L 629.841 579 630.529 582.250 M 561.888 590.450 L 559.276 591.919 557.990 595.024 L 556.704 598.130 557.988 604.934 L 559.272 611.739 558.550 615.619 L 557.828 619.500 551.414 625.679 L 545 631.858 545 635.373 L 545 638.888 547.250 641.478 L 549.500 644.068 553.076 644.636 L 556.652 645.205 561.856 642.967 L 567.059 640.728 571.476 635.816 L 575.892 630.903 577.946 625.414 L 580 619.925 580 613 L 580 606.075 577.910 600.488 C 576.760 597.416, 574.848 593.784, 573.660 592.417 L 571.500 589.932 568 589.457 L 564.500 588.981 561.888 590.450 M 311 597.229 L 308.500 598.528 306.688 602.014 L 304.875 605.500 305.283 612.673 L 305.690 619.846 308.401 625.387 L 311.112 630.929 315.659 634.931 L 320.206 638.933 325.853 641.058 L 331.500 643.183 335.967 642.690 L 340.434 642.197 342.717 639.543 L 345 636.888 345 633.667 L 345 630.445 343.375 628.124 L 341.749 625.804 335.576 623.034 L 329.403 620.265 327.487 617.382 L 325.571 614.500 324.925 607.667 L 324.279 600.835 322.330 598.885 L 320.380 596.936 316.940 596.433 L 313.500 595.931 311 597.229 M 408.117 602.631 L 405.789 604.261 404.430 607.513 L 403.072 610.764 404.036 614.125 C 404.566 615.974, 405 619.192, 405 621.276 L 405 625.064 403.645 628.307 L 402.290 631.549 398.895 634.346 C 397.028 635.884, 393.925 638.139, 392 639.358 L 388.500 641.575 387.257 644.159 L 386.014 646.743 387.142 649.979 L 388.271 653.215 391.603 654.608 C 395.847 656.381, 397.437 656.356, 403.965 654.418 L 409.294 652.835 414.642 647.777 L 419.990 642.719 422.745 637.109 L 425.500 631.500 425.500 622.500 L 425.500 613.500 423.210 609.211 L 420.919 604.922 417.710 602.965 C 413.795 600.577, 411.178 600.486, 408.117 602.631 M 237.284 606.727 L 235.068 607.130 232.574 610.095 L 230.080 613.059 229.410 616.629 L 228.740 620.198 229.258 625.912 L 229.776 631.625 232.459 636.918 L 235.141 642.212 239.521 646.468 C 244.318 651.130, 249.256 653.843, 254.495 654.693 L 257.888 655.244 261.492 654.568 L 265.095 653.891 267.087 650.696 L 269.078 647.500 268.527 644.566 C 267.809 640.739, 265.526 638.308, 260 635.485 C 257.525 634.221, 254.183 631.799, 252.573 630.104 L 249.646 627.021 249.058 619.024 L 248.471 611.026 246.485 609.134 C 244.297 607.049, 240.694 606.106, 237.284 606.727 M 649.099 631.828 L 651.068 637.657 653.924 641.078 L 656.780 644.500 738.140 644.745 L 819.500 644.989 822 643.745 L 824.500 642.500 827.208 637 C 828.697 633.975, 830.208 630.263, 830.566 628.750 L 831.217 626 739.174 626 L 647.131 626 649.099 631.828 M 475.455 643.455 L 473 645.909 473 652.639 L 473 659.369 470.879 663.750 L 468.758 668.132 465.129 670.461 C 463.133 671.743, 459.879 673.301, 457.897 673.924 L 454.294 675.058 451.947 677.556 L 449.600 680.055 449.600 683.657 L 449.600 687.259 452.496 689.750 L 455.391 692.241 462.104 691.760 L 468.817 691.280 475.158 687.806 L 481.500 684.331 485.707 679.181 L 489.913 674.032 491.457 668.834 L 493 663.637 492.994 658.568 C 492.991 655.781, 492.528 651.841, 491.965 649.814 L 490.941 646.129 487.894 643.564 L 484.847 641 481.378 641 L 477.909 641 475.455 643.455 M 620.281 646.606 C 619.124 648.230, 615.732 651.511, 612.744 653.895 L 607.311 658.231 608.112 662.365 C 608.552 664.639, 608.925 669.200, 608.939 672.500 L 608.965 678.500 607.510 685.371 L 606.054 692.242 602.305 699.871 L 598.556 707.500 591.006 715.083 L 583.456 722.666 575.844 726.427 L 568.233 730.189 567.594 735.003 C 566.683 741.871, 563.614 750.227, 559.541 756.932 L 556.023 762.724 548.748 769.612 L 541.473 776.500 535.987 779.153 C 532.969 780.612, 528.025 782.567, 525 783.498 C 521.975 784.428, 518.825 785.410, 518 785.680 L 516.500 786.171 522.319 789.136 C 525.519 790.767, 532.719 793.620, 538.319 795.477 L 548.500 798.852 558.892 800.560 L 569.285 802.268 585.892 801.732 L 602.500 801.196 610 799.578 C 614.125 798.687, 621.606 796.600, 626.625 794.939 L 635.750 791.918 644.523 787.404 C 656.483 781.250, 665.089 775.022, 674.060 766.028 L 681.620 758.449 685.919 752.119 C 688.284 748.637, 692.176 741.673, 694.568 736.644 L 698.918 727.500 688.709 726.843 L 678.500 726.186 673.731 724.685 C 664.141 721.667, 655.170 714.265, 649.616 704.788 C 647.380 700.972, 624.146 649.161, 622.840 645.076 L 622.384 643.652 620.281 646.606 M 668.574 675.500 C 668.916 677.150, 670.318 681.043, 671.690 684.151 L 674.185 689.803 676.865 692.370 L 679.545 694.938 738.690 695.219 L 797.835 695.500 800.518 693 L 803.200 690.500 806.020 684.938 C 807.570 681.879, 809.129 677.829, 809.484 675.938 L 810.129 672.500 739.041 672.500 L 667.952 672.500 668.574 675.500 M 523.659 684.054 L 521.048 686.107 519.977 690.304 C 519.388 692.612, 518.425 695.733, 517.836 697.239 L 516.766 699.978 512.908 703.464 L 509.050 706.949 506.509 707.587 L 503.968 708.225 501.826 707.665 L 499.685 707.105 496.423 708.468 L 493.161 709.831 492.080 711.850 C 491.486 712.960, 491 715.148, 491 716.712 L 491 719.555 492.551 721.770 C 494.413 724.428, 497.252 726.042, 501.918 727.094 L 505.383 727.876 510.334 726.937 C 513.058 726.420, 517.252 725.015, 519.656 723.815 L 524.025 721.633 528.598 717.252 L 533.170 712.871 535.581 707.604 L 537.992 702.338 538.615 697.794 L 539.238 693.250 538.046 689.641 L 536.855 686.031 534.293 684.016 L 531.730 682 529 682 L 526.270 682 523.659 684.054 M 277.452 685.646 L 275 688.292 275 693.468 L 275 698.644 276.592 703.316 L 278.184 707.988 282.734 713.050 L 287.285 718.111 292.392 720.711 L 297.500 723.312 304.613 723.779 L 311.726 724.245 315.347 723.050 L 318.969 721.855 320.984 719.293 L 323 716.730 323 713.766 L 323 710.802 319.999 707.999 L 316.999 705.196 310.749 704.481 L 304.500 703.767 301.838 702.403 C 298.112 700.495, 295.503 696.866, 294.003 691.509 L 292.719 686.924 290.225 684.962 L 287.730 683 283.817 683 L 279.905 683 277.452 685.646 M 360.672 703.043 L 358.074 705.087 357.456 708.382 L 356.838 711.677 358.322 715.228 C 359.138 717.181, 361.537 720.699, 363.653 723.046 L 367.500 727.312 373.500 730.155 L 379.500 732.998 386.500 732.994 L 393.500 732.989 397.118 731.984 C 402.093 730.602, 407.002 727.118, 409.808 722.976 L 412.163 719.500 411.615 716 L 411.068 712.500 408.478 710.250 L 405.888 708 402.794 708 L 399.699 708 394.394 710.595 L 389.089 713.191 384.836 712.472 L 380.582 711.754 375.248 706.377 L 369.914 701 366.592 701 L 363.270 701 360.672 703.043 M 728.069 733.218 C 725.226 742.044, 718.157 756.001, 711.542 765.844 L 706.607 773.189 697.684 782.617 L 688.761 792.046 680.227 798.451 C 659.088 814.316, 634.503 824.429, 607 828.573 L 596.500 830.155 580 830.175 L 563.500 830.195 554 828.541 C 536.313 825.463, 524.901 821.726, 506.720 813.061 L 497.941 808.877 493.080 812.688 C 490.406 814.785, 487.382 816.999, 486.360 817.609 L 484.501 818.717 491.639 823.335 C 495.565 825.875, 503.440 830.233, 509.139 833.020 L 519.500 838.087 530.500 841.485 C 545.244 846.040, 554.273 847.771, 569.191 848.900 L 581.690 849.846 594.595 848.949 C 609.736 847.897, 617.052 846.777, 630 843.529 C 650.695 838.336, 670.222 829.517, 687.648 817.494 L 697.500 810.696 710.057 798.098 L 722.613 785.500 728.889 776.061 C 732.341 770.869, 736.734 763.506, 738.652 759.699 C 742.260 752.534, 749.959 730.829, 749.985 727.750 L 750 726 740.197 726 L 730.394 726 728.069 733.218 M 457.632 747.713 L 454.764 749.500 451.632 755.956 L 448.500 762.413 445.708 764.433 L 442.915 766.454 433.208 766.977 L 423.500 767.500 422.243 768.313 C 421.551 768.761, 420.288 770.476, 419.436 772.125 L 417.885 775.122 418.972 778.414 L 420.058 781.706 422.279 783.691 C 423.501 784.783, 425.972 786.258, 427.771 786.968 L 431.043 788.260 438.271 787.788 L 445.500 787.316 451.124 784.645 L 456.748 781.974 461.158 778.092 L 465.567 774.211 468.494 768.855 L 471.420 763.500 471.460 757.775 L 471.500 752.050 469 749.549 L 466.500 747.048 463.500 746.487 L 460.500 745.926 457.632 747.713" stroke="none" fill="#131212" fill-rule="evenodd"/></svg>